<svg width="24" height="24" viewBox="0 0 24 24" fill="none" xmlns="http://www.w3.org/2000/svg">
<circle cx="12" cy="12" r="12" fill="#252525"/>
<path d="M18.8022 10.8728L17.0147 10.6495C16.8983 10.2154 16.7256 9.79837 16.501 9.4091L17.6075 7.98652C17.6412 7.94305 17.6579 7.88876 17.6545 7.83383C17.651 7.7789 17.6276 7.72712 17.5887 7.68823L16.3109 6.41174C16.2719 6.37284 16.2202 6.34948 16.1652 6.34607C16.1103 6.34266 16.056 6.35943 16.0126 6.39323L14.59 7.49968C14.201 7.27558 13.7844 7.10326 13.3508 6.9871L13.1272 5.19848C13.1206 5.14376 13.0941 5.09336 13.0528 5.0568C13.0116 5.02024 12.9584 5.00004 12.9032 5H11.0968C11.0417 5.00002 10.9886 5.02012 10.9474 5.05655C10.9061 5.09297 10.8796 5.1432 10.8728 5.19781L10.6492 6.9871C10.2152 7.10328 9.79834 7.276 9.40932 7.50081L7.98674 6.39435C7.94331 6.36056 7.88902 6.34379 7.8341 6.3472C7.77917 6.35061 7.72738 6.37396 7.68845 6.41287L6.41174 7.68913C6.3728 7.72802 6.34941 7.7798 6.34596 7.83473C6.34251 7.88966 6.35924 7.94396 6.393 7.98742L7.49945 9.41C7.27547 9.7991 7.10323 10.2158 6.9871 10.6495L5.19848 10.8728C5.14376 10.8794 5.09336 10.9059 5.0568 10.9472C5.02024 10.9884 5.00004 11.0416 5 11.0968V12.9032C5.00002 12.9583 5.02012 13.0114 5.05655 13.0526C5.09297 13.0939 5.1432 13.1204 5.19781 13.1272L6.98642 13.3505C7.10274 13.7846 7.27537 14.2016 7.4999 14.5909L6.39345 16.0135C6.35966 16.0569 6.34289 16.1112 6.3463 16.1661C6.34971 16.2211 6.37306 16.2729 6.41197 16.3118L7.68935 17.5892C7.72828 17.6281 7.78007 17.6514 7.835 17.6548C7.88993 17.6582 7.94421 17.6415 7.98765 17.6077L9.41023 16.5012C9.7994 16.7257 10.2162 16.8983 10.6501 17.0147L10.8737 18.8024C10.8805 18.8568 10.907 18.9069 10.948 18.9432C10.9891 18.9796 11.0419 18.9998 11.0968 19H12.9032C12.9583 19 13.0114 18.9799 13.0526 18.9435C13.0939 18.907 13.1204 18.8568 13.1272 18.8022L13.3505 17.0147C13.7847 16.8985 14.2017 16.7257 14.5909 16.501L16.0135 17.6075C16.0569 17.6412 16.1112 17.658 16.1661 17.6546C16.2211 17.6512 16.2729 17.6278 16.3118 17.5889L17.5892 16.3115C17.6281 16.2727 17.6515 16.2209 17.6549 16.1659C17.6584 16.111 17.6417 16.0567 17.6079 16.0133L16.5015 14.5907C16.7259 14.2014 16.8985 13.7844 17.0149 13.3503L18.8026 13.127C18.8571 13.1201 18.9072 13.0935 18.9435 13.0524C18.9799 13.0112 18.9999 12.9581 19 12.9032V11.0968C19 11.0417 18.9799 10.9886 18.9435 10.9474C18.907 10.9061 18.8568 10.8796 18.8022 10.8728ZM12 14.4839C11.5087 14.4839 11.0285 14.3382 10.62 14.0653C10.2116 13.7923 9.8932 13.4044 9.7052 12.9505C9.5172 12.4967 9.46802 11.9972 9.56386 11.5154C9.6597 11.0336 9.89626 10.591 10.2436 10.2436C10.591 9.89626 11.0336 9.6597 11.5154 9.56386C11.9972 9.46802 12.4967 9.5172 12.9505 9.7052C13.4044 9.8932 13.7923 10.2116 14.0653 10.62C14.3382 11.0285 14.4839 11.5087 14.4839 12C14.4839 12.6588 14.2222 13.2905 13.7564 13.7564C13.2905 14.2222 12.6588 14.4839 12 14.4839Z" fill="white"/>
</svg>
