<svg width="18" height="24" viewBox="0 0 18 24" fill="none" xmlns="http://www.w3.org/2000/svg">
<path d="M17.5001 9.50042H9.55861L10.4966 1.05542C10.5216 0.830421 10.3921 0.616421 10.1811 0.534421C9.96961 0.451421 9.73011 0.522421 9.59611 0.705421L0.0961067 13.7054C-0.0148933 13.8574 -0.0308934 14.0589 0.0541066 14.2264C0.139607 14.3949 0.312107 14.5004 0.500107 14.5004H8.44161L7.50361 22.9454C7.47861 23.1704 7.60811 23.3844 7.81911 23.4664C7.87811 23.4894 7.93911 23.5004 8.00011 23.5004C8.15611 23.5004 8.30761 23.4274 8.40411 23.2954L17.9041 10.2954C18.0151 10.1434 18.0311 9.94192 17.9461 9.77442C17.8606 9.60592 17.6881 9.50042 17.5001 9.50042Z" fill="white"/>
</svg>
